<svg width="13" height="29" viewBox="0 0 13 29" fill="none" xmlns="http://www.w3.org/2000/svg">
<path d="M8.56318 14.5405C9.79851 14.5405 10.9724 14.5338 12.1495 14.5472C12.4114 14.5506 12.5117 14.487 12.5343 14.1927C12.599 13.35 12.7057 12.5073 12.7898 11.6646C12.8642 10.9322 12.9289 10.1999 13.0032 9.40733C11.5092 9.40733 10.054 9.40733 8.58259 9.40733C8.58259 8.27034 8.54701 7.19354 8.59552 6.12009C8.62463 5.44792 9.01915 5.07004 9.67239 5.0366C10.5811 4.98978 11.493 5.0065 12.405 4.99982C12.5699 4.99982 12.7348 4.99982 12.9289 4.99982C12.9289 3.37124 12.9289 1.81624 12.9289 0.261232C12.9289 -0.0297045 12.7219 0.0304892 12.5634 0.0304892C11.2828 0.0204569 9.999 0.000392367 8.71841 0.0104247C7.40547 0.0204569 6.13458 0.234479 5.02537 1.03037C3.55398 2.08711 2.92662 3.63208 2.7908 5.40445C2.70348 6.52138 2.74552 7.65837 2.72935 8.79202C2.72612 8.97929 2.72935 9.16656 2.72935 9.40733C1.78831 9.40733 0.895771 9.40733 0 9.40733C0 11.1429 0 12.8283 0 14.5439C0.915174 14.5439 1.79478 14.5439 2.72612 14.5439C2.72612 19.3794 2.72612 24.1816 2.72612 29.0004C4.69229 29.0004 6.61318 29.0004 8.55995 29.0004C8.56318 24.1749 8.56318 19.3828 8.56318 14.5405Z" fill="white"/>
</svg>
