<svg width="31" height="31" viewBox="0 0 31 31" fill="none" xmlns="http://www.w3.org/2000/svg">
<path d="M23.0673 31C18.0237 31 12.9763 31 7.93267 31C7.61417 30.9513 7.29566 30.9176 6.98465 30.8464C3.46984 30.0557 1.21782 27.9311 0.254805 24.4575C0.127402 24.0041 0.0824368 23.532 0 23.0673C0 18.0237 0 12.9763 0 7.93267C0.0487127 7.61417 0.0824368 7.29566 0.153632 6.98465C0.944276 3.46984 3.0689 1.21782 6.54249 0.254805C6.99589 0.13115 7.46803 0.0824368 7.93267 0C12.9763 0 18.0237 0 23.0673 0C23.3858 0.0487127 23.7043 0.0824368 24.0153 0.153632C27.5264 0.944277 29.7784 3.0689 30.7414 6.53874C30.8688 6.99214 30.9138 7.46428 30.9963 7.92893C30.9963 12.9726 30.9963 18.0199 30.9963 23.0636C30.9475 23.3821 30.9138 23.7006 30.8426 24.0116C30.052 27.5227 27.9274 29.7747 24.4575 30.7377C24.0041 30.8688 23.532 30.9176 23.0673 31ZM15.4681 28.2496C17.7164 28.2496 19.9685 28.2496 22.2167 28.2496C22.9249 28.2496 23.6256 28.1784 24.3001 27.9386C26.7657 27.0618 28.2459 24.9409 28.2496 22.2579C28.2534 17.7576 28.2646 13.2573 28.2384 8.76079C28.2346 8.07506 28.1409 7.35936 27.9274 6.71486C27.0917 4.23051 24.9446 2.75414 22.2654 2.75039C17.7539 2.7429 13.2461 2.7354 8.73456 2.76163C8.06007 2.76538 7.35561 2.85906 6.71485 3.07265C4.24924 3.89701 2.75789 6.03662 2.75039 8.69709C2.73915 13.2386 2.7429 17.7764 2.75039 22.3179C2.75414 24.3376 3.55977 25.9714 5.19727 27.1704C6.25021 27.9423 7.45304 28.2571 8.74955 28.2534C10.9903 28.2496 13.2311 28.2496 15.4681 28.2496Z" fill="white"/>
<path d="M23.487 15.4944C23.4908 19.8786 19.8785 23.4908 15.4944 23.4871C11.1028 23.4833 7.49427 19.8673 7.50926 15.4869C7.52425 11.0991 11.099 7.52429 15.4869 7.5093C19.8673 7.49806 23.4833 11.1028 23.487 15.4944ZM20.7329 15.5057C20.7404 12.6241 18.3947 10.2747 15.5056 10.2672C12.6241 10.2597 10.2746 12.6054 10.2671 15.4944C10.2597 18.376 12.6054 20.7254 15.4944 20.7329C18.3722 20.7404 20.7254 18.3947 20.7329 15.5057Z" fill="white"/>
<path d="M23.8655 5.18983C24.9746 5.2198 25.8702 6.14534 25.8365 7.22452C25.8028 8.3599 24.8697 9.24047 23.7456 9.203C22.6627 9.16553 21.7746 8.2325 21.8046 7.16456C21.8383 6.04417 22.7601 5.15985 23.8655 5.18983Z" fill="white"/>
</svg>
