<svg width="161" height="52" viewBox="0 0 161 52" fill="none" xmlns="http://www.w3.org/2000/svg">
<path d="M14.9306 34.7123H11.2932V28.3702H3.78191V34.7123H0.170715V18.9221H3.78847V25.147H11.2932V18.9221H14.9306V34.7123Z" fill="white"/>
<path d="M14.9306 34.8815H11.2932C11.2013 34.8815 11.1225 34.8099 11.1225 34.7122V28.5394H3.95261V34.7122C3.95261 34.8034 3.88039 34.8815 3.7819 34.8815H0.170711C0.0722238 34.8815 0 34.8034 0 34.7122V18.9221C0 18.8309 0.0722238 18.7528 0.170711 18.7528H3.78847C3.88039 18.7528 3.95918 18.8244 3.95918 18.9221V24.9842H11.129V18.9221C11.129 18.8309 11.2013 18.7528 11.2997 18.7528H14.9372C15.0291 18.7528 15.1079 18.8244 15.1079 18.9221V34.7122C15.1013 34.8034 15.0226 34.8815 14.9306 34.8815ZM11.4573 34.5495H14.7599V19.0914H11.4573V25.1535C11.4573 25.2447 11.3851 25.3228 11.2866 25.3228H3.7819C3.68998 25.3228 3.61119 25.2512 3.61119 25.1535V19.0914H0.32829V34.5495H3.61119V28.3767C3.61119 28.2855 3.68341 28.2074 3.7819 28.2074H11.2932C11.3851 28.2074 11.4639 28.279 11.4639 28.3767V34.5495H11.4573Z" fill="white"/>
<path d="M35.4356 34.7123H31.1153L29.8875 31.5998H23.2166L21.9888 34.7123H17.6685L24.149 18.9221H28.9026L35.4356 34.7123ZM24.1753 28.7348H28.9092L26.5455 22.9136L24.1753 28.7348Z" fill="white"/>
<path d="M35.4356 34.8815H31.1153C31.0431 34.8815 30.984 34.8424 30.9577 34.7773L29.7693 31.769H23.3349L22.1464 34.7773C22.1202 34.8424 22.0611 34.8815 21.9889 34.8815H17.6686C17.616 34.8815 17.5635 34.8554 17.5307 34.8099C17.4979 34.7643 17.4913 34.7057 17.5175 34.6536L23.998 18.8635C24.0243 18.7983 24.0834 18.7593 24.1556 18.7593H28.9092C28.9749 18.7593 29.0405 18.7983 29.0668 18.8635L35.5932 34.6536C35.6129 34.7057 35.6063 34.7643 35.5801 34.8099C35.5407 34.8554 35.4881 34.8815 35.4356 34.8815ZM31.2269 34.5494H35.1861L28.7976 19.0914H24.2672L17.9181 34.5494H21.8772L23.0657 31.5411C23.0919 31.476 23.151 31.437 23.2232 31.437H29.8875C29.9597 31.437 30.0188 31.476 30.0451 31.5411L31.2269 34.5494ZM28.9026 28.904H24.1687C24.1162 28.904 24.0637 28.878 24.0308 28.8324C23.998 28.7868 23.9914 28.7282 24.0111 28.6761L26.3748 22.8549C26.4011 22.7898 26.4602 22.7508 26.5324 22.7508C26.5981 22.7508 26.6637 22.7898 26.69 22.8549L29.0537 28.6761C29.0734 28.7282 29.0668 28.7868 29.034 28.8324C29.0143 28.8715 28.9617 28.904 28.9026 28.904ZM24.4248 28.5719H28.6597L26.5455 23.3628L24.4248 28.5719Z" fill="white"/>
<path d="M57.3523 34.7123H53.7805V23.708L48.3637 32.7523H47.1096L41.6731 23.708V34.7188H38.1276V18.9221H42.8812L47.7268 26.9311L52.5921 18.9221H57.3457V34.7123H57.3523Z" fill="white"/>
<path d="M57.3523 34.8816H53.7805C53.6886 34.8816 53.6098 34.8099 53.6098 34.7123V24.3136L48.5081 32.837C48.4753 32.8891 48.4228 32.9151 48.3637 32.9151H47.1096C47.0505 32.9151 46.998 32.8826 46.9652 32.837L41.8373 24.3071V34.7123C41.8373 34.8034 41.765 34.8816 41.6666 34.8816H38.121C38.0291 34.8816 37.9503 34.8099 37.9503 34.7123V18.9221C37.9503 18.831 38.0225 18.7528 38.121 18.7528H42.8747C42.9338 18.7528 42.9863 18.7854 43.0191 18.831L47.7202 26.5991L52.441 18.8245C52.4739 18.7724 52.5264 18.7463 52.5855 18.7463H57.3391C57.4311 18.7463 57.5098 18.818 57.5098 18.9156V34.7058C57.5164 34.8034 57.4442 34.8816 57.3523 34.8816ZM53.9512 34.5495H57.1881V19.0914H52.6971L47.8778 27.0223C47.845 27.0744 47.7925 27.1005 47.7334 27.1005C47.6743 27.1005 47.6217 27.0679 47.5889 27.0223L42.7959 19.0914H38.3049V34.5495H41.5155V23.708C41.5155 23.6299 41.5681 23.5648 41.6403 23.5452C41.7125 23.5257 41.7913 23.5583 41.8307 23.6234L47.2212 32.5896H48.2783L53.6426 23.6234C53.682 23.5583 53.7608 23.5257 53.833 23.5452C53.9052 23.5648 53.9577 23.6299 53.9577 23.708V34.5495H53.9512Z" fill="white"/>
<path d="M61.7907 18.9221H68.6126C73.3663 18.9221 75.5067 20.7062 75.5067 24.5154C75.5067 28.2855 73.3006 30.0175 68.6389 30.0175H65.4085V34.7123H61.7907V18.9221ZM65.4085 22.015V27.2502H68.4813C70.7531 27.2502 71.7314 26.4623 71.7314 24.6587C71.7314 22.8745 70.799 22.0215 68.455 22.0215H65.4085V22.015Z" fill="white"/>
<path d="M65.4085 34.8815H61.7908C61.6988 34.8815 61.6201 34.8099 61.6201 34.7122V18.9221C61.6201 18.8309 61.6923 18.7528 61.7908 18.7528H68.6126C73.4319 18.7528 75.6709 20.5825 75.6709 24.5154C75.6709 28.3832 73.4319 30.1868 68.6323 30.1868H65.5727V34.7122C65.5792 34.8034 65.5004 34.8815 65.4085 34.8815ZM61.9615 34.5495H65.2444V30.024C65.2444 29.9329 65.3166 29.8547 65.4151 29.8547H68.6455C73.2153 29.8547 75.3492 28.1553 75.3492 24.5154C75.3492 20.7583 73.2744 19.0849 68.6258 19.0849H61.9615V34.5495ZM68.4813 27.413H65.4085C65.3166 27.413 65.2378 27.3413 65.2378 27.2437V22.0085C65.2378 21.9173 65.31 21.8392 65.4085 21.8392H68.4551C70.8384 21.8392 71.8955 22.7052 71.8955 24.6456C71.9021 26.56 70.845 27.413 68.4813 27.413ZM71.5672 24.6521C71.5672 22.9201 70.6349 22.1778 68.4616 22.1778H65.5792V27.0809H68.4813C70.6677 27.0809 71.5672 26.3777 71.5672 24.6521Z" fill="white"/>
<path d="M91.4682 20.4327L89.9449 23.2066C88.2181 22.282 86.058 21.7155 84.3968 21.7155C83.1427 21.735 82.2826 22.2364 82.2826 23.2261C82.2826 23.5647 82.4665 23.8577 82.8539 24.0596C83.2412 24.2614 84.0817 24.5349 85.3817 24.8735L86.9509 25.3228C87.7454 25.5246 88.9272 25.9348 89.5444 26.2734C90.1616 26.612 90.9101 27.1329 91.2515 27.6929C91.5929 28.2594 91.8424 29.0212 91.8424 29.9263C91.8424 33.1495 89.2949 34.9336 85.2898 34.9336C82.3548 34.9336 79.8336 34.2108 77.6669 32.7913L79.3018 30.1087C81.3043 31.2807 83.4448 31.8667 85.6968 31.8667C86.9247 31.8667 88.0146 31.4174 88.0146 30.3756C88.0146 29.8091 87.811 29.425 87.4236 29.2231C87.0363 28.9952 86.1499 28.7022 84.7382 28.3636L84.3509 28.2724C82.716 27.8427 81.7836 27.5953 80.6871 27.0743C79.1639 26.3516 78.3694 25.4074 78.3694 23.6428C78.3694 20.2569 81.2124 18.6812 84.7842 18.6812C87.3317 18.6942 89.5575 19.2802 91.4682 20.4327Z" fill="white"/>
<path d="M85.3817 35.0965C82.4533 35.129 79.8533 34.4323 77.6406 33.0193C77.5618 32.9738 77.5421 32.8696 77.5881 32.7979L79.1967 30.0957C79.2427 30.0176 79.3477 29.9915 79.4265 30.0371C81.4094 31.1636 83.5367 31.7236 85.7559 31.6975C86.7933 31.6845 87.903 31.3264 87.8898 30.3497C87.8833 29.8613 87.7125 29.5227 87.3777 29.3534C86.9837 29.1255 86.0383 28.839 84.7251 28.5395L84.3377 28.4548C82.7291 28.0511 81.7574 27.8102 80.628 27.2893C78.9275 26.5079 78.1921 25.4466 78.1724 23.7406C78.133 20.5761 80.6346 18.5836 84.6923 18.5315C87.2464 18.4989 89.5313 19.0654 91.4879 20.2114C91.5667 20.257 91.5929 20.3547 91.5535 20.4328L90.0631 23.2262C90.0171 23.3043 89.9187 23.3369 89.8399 23.2978C88.159 22.4253 86.0054 21.8718 84.3509 21.8914C83.7665 21.9109 82.4074 22.0802 82.4205 23.2588C82.4271 23.5453 82.5912 23.7797 82.9064 23.9425C83.2806 24.1313 84.1211 24.3917 85.4079 24.7108L86.9837 25.1471C87.7782 25.3424 88.9797 25.7331 89.6232 26.0782C90.1156 26.3386 91.002 26.8791 91.4091 27.5367C91.698 27.9991 92.0394 28.7739 92.0525 29.8483C92.0788 33.0845 89.5904 35.0509 85.3817 35.0965ZM77.9623 32.824C80.0831 34.1458 82.5781 34.7969 85.3817 34.7644C89.3803 34.7188 91.7439 32.8761 91.7045 29.8483C91.698 29.0669 91.4813 28.3051 91.1136 27.706C90.7328 27.094 89.8267 26.5665 89.4525 26.3647C88.855 26.0456 87.6797 25.6549 86.8853 25.4661L85.3029 25.0299C83.9832 24.7043 83.1427 24.4438 82.7357 24.2355C82.1907 23.9555 82.0725 23.5518 82.066 23.2588C82.0528 22.2365 82.8998 21.5983 84.3246 21.5528C85.9857 21.5332 88.1262 22.0672 89.8267 22.9202L91.1662 20.4133C89.2949 19.3519 87.1151 18.831 84.6857 18.857C80.7725 18.9026 78.4613 20.7258 78.4942 23.7276C78.5139 25.3098 79.1704 26.2475 80.7594 26.9833C81.8624 27.4912 82.821 27.7321 84.4034 28.1228L84.7842 28.2074C86.1565 28.52 87.1019 28.813 87.5221 29.0539C87.8307 29.2102 88.205 29.5618 88.2115 30.3366C88.2247 31.3589 87.2792 32.0036 85.7428 32.0231C83.517 32.0491 81.3831 31.5022 79.3871 30.3952L77.9623 32.824Z" fill="white"/>
<path d="M107.285 21.989H102.44V34.7123H98.7759V21.989H93.9566V18.9221H107.285V21.989Z" fill="white"/>
<path d="M102.446 34.8815H98.7825C98.6905 34.8815 98.6118 34.8099 98.6118 34.7122V22.1583H93.9566C93.8647 22.1583 93.7859 22.0866 93.7859 21.989V18.9221C93.7859 18.8309 93.8581 18.7528 93.9566 18.7528H107.285C107.377 18.7528 107.456 18.8244 107.456 18.9221V21.989C107.456 22.0801 107.384 22.1583 107.285 22.1583H102.61V34.7122C102.61 34.8034 102.538 34.8815 102.446 34.8815ZM98.9466 34.5495H102.275V21.989C102.275 21.8978 102.348 21.8197 102.446 21.8197H107.121V19.0849H94.1273V21.8197H98.7825C98.8744 21.8197 98.9532 21.8913 98.9532 21.989V34.5495H98.9466Z" fill="white"/>
<path d="M122.721 22.1453H113.621V25.1926H122.084V28.2595H113.621V31.4826H122.879V34.7057H110.003V18.9221H122.721V22.1453Z" fill="white"/>
<path d="M122.879 34.8815H110.003C109.911 34.8815 109.833 34.8099 109.833 34.7122V18.9221C109.833 18.8309 109.905 18.7528 110.003 18.7528H122.721C122.813 18.7528 122.892 18.8244 122.892 18.9221V22.1452C122.892 22.2364 122.82 22.3145 122.721 22.3145H113.792V25.0298H122.084C122.176 25.0298 122.255 25.1014 122.255 25.1991V28.266C122.255 28.3571 122.183 28.4353 122.084 28.4353H113.785V31.3263H122.879C122.971 31.3263 123.05 31.3979 123.05 31.4956V34.7187C123.043 34.8034 122.971 34.8815 122.879 34.8815ZM110.168 34.5495H122.708V31.6584H113.615C113.523 31.6584 113.444 31.5868 113.444 31.4891V28.2594C113.444 28.1683 113.516 28.0901 113.615 28.0901H121.907V25.3554H113.615C113.523 25.3554 113.444 25.2837 113.444 25.1861V22.1387C113.444 22.0476 113.516 21.9694 113.615 21.9694H122.544V19.0784H110.161V34.5495H110.168Z" fill="white"/>
<path d="M142.957 34.7123H138.637L137.409 31.5998H130.745L129.517 34.7123H125.197L131.677 18.9221H136.431L142.957 34.7123ZM131.697 28.7348H136.431L134.067 22.9136L131.697 28.7348Z" fill="white"/>
<path d="M142.957 34.8815H138.637C138.565 34.8815 138.506 34.8424 138.479 34.7773L137.291 31.769H130.856L129.668 34.7773C129.642 34.8424 129.583 34.8815 129.51 34.8815H125.19C125.138 34.8815 125.085 34.8554 125.052 34.8099C125.019 34.7643 125.013 34.7057 125.039 34.6536L131.52 18.8635C131.546 18.7983 131.605 18.7593 131.677 18.7593H136.431C136.496 18.7593 136.562 18.7983 136.588 18.8635L143.115 34.6536C143.134 34.7057 143.128 34.7643 143.102 34.8099C143.069 34.8554 143.016 34.8815 142.957 34.8815ZM138.748 34.5494H142.708L136.319 19.0914H131.789L125.44 34.5494H129.399L130.587 31.5411C130.613 31.476 130.673 31.437 130.745 31.437H137.409C137.481 31.437 137.54 31.476 137.567 31.5411L138.748 34.5494ZM136.431 28.904H131.697C131.644 28.904 131.592 28.878 131.559 28.8324C131.526 28.7868 131.52 28.7282 131.539 28.6761L133.903 22.8549C133.929 22.7898 133.988 22.7508 134.061 22.7508C134.126 22.7508 134.192 22.7898 134.218 22.8549L136.582 28.6761C136.601 28.7282 136.595 28.7868 136.562 28.8324C136.536 28.8715 136.483 28.904 136.431 28.904ZM131.946 28.5719H136.181L134.061 23.3628L131.946 28.5719Z" fill="white"/>
<path d="M145.702 18.9221H152.346C156.942 18.831 160.921 22.4187 160.829 26.84C160.921 31.2156 156.942 34.8034 152.346 34.7122H145.702V18.9221ZM149.319 22.1257V31.4891H152.208C153.574 31.4891 154.736 31.0398 155.688 30.1608C156.64 29.2557 157.12 28.1553 157.12 26.8204C157.12 25.4921 156.64 24.3852 155.688 23.4801C154.73 22.575 153.574 22.1257 152.208 22.1257H149.319Z" fill="white"/>
<path d="M152.517 34.8815C152.458 34.8815 152.405 34.8815 152.346 34.8815H145.708C145.616 34.8815 145.538 34.8099 145.538 34.7122V18.9221C145.538 18.831 145.61 18.7528 145.708 18.7528H152.353C154.71 18.7007 157.028 19.6253 158.689 21.2727C160.225 22.7964 161.046 24.7759 161.007 26.84C161.046 28.8715 160.232 30.8315 158.702 32.3486C157.067 33.9634 154.822 34.8815 152.517 34.8815ZM145.872 34.5495H152.346C154.638 34.595 156.857 33.7095 158.459 32.1207C159.923 30.6687 160.705 28.7934 160.665 26.8465C160.705 24.867 159.917 22.9787 158.446 21.5137C156.85 19.9249 154.625 19.0393 152.353 19.0914H145.872V34.5495ZM152.208 31.6519H149.319C149.228 31.6519 149.149 31.5803 149.149 31.4826V22.1257C149.149 22.0346 149.221 21.9564 149.319 21.9564H152.208C153.613 21.9564 154.822 22.4252 155.806 23.3564C156.791 24.2875 157.29 25.453 157.29 26.8139C157.29 28.1813 156.791 29.3403 155.806 30.2715C154.815 31.1896 153.607 31.6519 152.208 31.6519ZM149.49 31.3198H152.208C153.515 31.3198 154.651 30.8901 155.577 30.0306C156.502 29.1515 156.955 28.1032 156.955 26.8139C156.955 25.5247 156.502 24.4763 155.577 23.5973C154.657 22.7313 153.528 22.2885 152.215 22.2885H149.497V31.3198H149.49Z" fill="white"/>
<path d="M66.1176 47.8001H67.6671V48.8158H66.1176V50.8995H68.0677V51.9153H64.9949V44.8048H68.0677V45.8206H66.1176V47.8001Z" fill="white"/>
<path d="M70.694 44.7202C71.8036 44.7202 72.3551 45.3583 72.3551 46.5108V46.7322H71.2915V46.4392C71.2915 45.9183 71.0879 45.736 70.7268 45.736C70.3657 45.736 70.1622 45.9183 70.1622 46.4392C70.1622 46.9276 70.4051 47.2857 70.7334 47.6113C70.8975 47.7871 71.0682 47.9499 71.2652 48.1061C71.6329 48.4447 71.9809 48.8289 72.1975 49.3238C72.3092 49.5777 72.3617 49.8707 72.3617 50.2093C72.3617 51.3553 71.7905 52 70.6808 52C69.5712 52 69 51.3618 69 50.2093V49.7731H70.0637V50.2809C70.0637 50.8019 70.2869 50.9712 70.648 50.9712C71.0091 50.9712 71.2324 50.7953 71.2324 50.2809C71.2324 49.7926 70.9894 49.4345 70.6612 49.1024C70.497 48.9396 70.3263 48.7768 70.1359 48.6075C69.7551 48.282 69.4071 47.8978 69.1904 47.3964C69.0788 47.1425 69.0263 46.8494 69.0263 46.5108C69.0328 45.3648 69.5909 44.7202 70.694 44.7202Z" fill="white"/>
<path d="M73.1956 44.8048H76.682V45.8206H75.5067V51.9153H74.3774V45.8206H73.2021V44.8048H73.1956Z" fill="white"/>
<path d="M78.1002 50.8409V51.9153H77.0168V50.8409H78.1002Z" fill="white"/>
<path d="M83.1821 45.7426C82.821 45.7426 82.5978 45.9249 82.5978 46.4458V47.2076H81.5341V46.5174C81.5341 45.3714 82.1053 44.7268 83.215 44.7268C84.3246 44.7268 84.8958 45.3649 84.8958 46.5174C84.8958 47.2597 84.6529 47.8588 84.3246 48.3471C84.1473 48.6011 83.9766 48.8225 83.7796 49.0373C83.3922 49.4541 83.0311 49.8317 82.8144 50.1834C82.7028 50.3657 82.6503 50.561 82.6503 50.7498C82.6503 50.8215 82.6503 50.8736 82.6634 50.8996H84.7973V51.9154H81.5407V51.0429C81.5407 50.3526 81.7836 49.8448 82.125 49.3955C82.2892 49.1806 82.4665 48.9657 82.6569 48.7769C83.0377 48.3927 83.3922 47.976 83.6089 47.4551C83.7205 47.2011 83.773 46.8951 83.773 46.55C83.7665 45.9119 83.5432 45.7426 83.1821 45.7426Z" fill="white"/>
<path d="M85.8938 46.5108C85.8938 45.3648 86.4979 44.7202 87.6075 44.7202C88.7171 44.7202 89.3212 45.3583 89.3212 46.5108V50.2093C89.3212 51.3553 88.7171 52 87.6075 52C86.4979 52 85.8938 51.3618 85.8938 50.2093V46.5108ZM87.0166 50.2809C87.0166 50.8019 87.2398 50.9842 87.6009 50.9842C87.9621 50.9842 88.1853 50.8019 88.1853 50.2809V46.4392C88.1853 45.9183 87.9621 45.736 87.6009 45.736C87.2398 45.736 87.0166 45.9183 87.0166 46.4392V50.2809Z" fill="white"/>
<path d="M92.0197 45.7426C91.6586 45.7426 91.4353 45.9249 91.4353 46.4458V47.2076H90.3717V46.5174C90.3717 45.3714 90.9429 44.7268 92.0525 44.7268C93.1621 44.7268 93.7333 45.3649 93.7333 46.5174C93.7333 47.2597 93.4904 47.8588 93.1621 48.3471C92.9914 48.6011 92.8141 48.8225 92.6172 49.0373C92.2298 49.4541 91.8687 49.8317 91.652 50.1834C91.5404 50.3657 91.4879 50.561 91.4879 50.7498C91.4879 50.8215 91.4879 50.8736 91.501 50.8996H93.6349V51.9154H90.3782V51.0429C90.3782 50.3526 90.6212 49.8448 90.9626 49.3955C91.1267 49.1806 91.304 48.9657 91.4944 48.7769C91.8752 48.3927 92.2298 47.976 92.4465 47.4551C92.5581 47.2011 92.6106 46.8951 92.6106 46.55C92.604 45.9119 92.3742 45.7426 92.0197 45.7426Z" fill="white"/>
<path d="M94.7248 46.5108C94.7248 45.3648 95.3289 44.7202 96.4385 44.7202C97.5481 44.7202 98.1522 45.3583 98.1522 46.5108V50.2093C98.1522 51.3553 97.5481 52 96.4385 52C95.3289 52 94.7248 51.3618 94.7248 50.2093V46.5108ZM95.8541 50.2809C95.8541 50.8019 96.0774 50.9842 96.4385 50.9842C96.7996 50.9842 97.0228 50.8019 97.0228 50.2809V46.4392C97.0228 45.9183 96.7996 45.736 96.4385 45.736C96.0774 45.736 95.8541 45.9183 95.8541 46.4392V50.2809Z" fill="white"/>
<path d="M56.026 47.9369H15.0357V48.3862H56.026V47.9369Z" fill="white"/>
<path d="M148.046 47.8392H107.055V48.2885H148.046V47.8392Z" fill="white"/>
<path d="M52.185 2.05762C53.3537 1.88833 53.9183 2.35064 54.0759 3.43153L54.1153 3.68547C54.2204 4.40824 54.0694 4.9031 53.6097 5.20914C54.2532 5.35239 54.5552 5.84074 54.6668 6.59607L54.7522 7.16907C54.9163 8.25647 54.4305 8.92063 53.3077 9.08342L51.5546 9.34387L50.5041 2.30506L52.185 2.05762ZM51.7648 3.14503L52.0405 5.00729L52.4739 4.94217C52.8875 4.88357 53.1173 4.66218 53.032 4.1022L52.9729 3.71152C52.8941 3.19712 52.6905 3.0148 52.2966 3.0734L51.7648 3.14503ZM52.1981 6.01004L52.5198 8.17182L53.1567 8.08066C53.531 8.02857 53.7082 7.82672 53.6294 7.2993L53.5375 6.68723C53.439 6.03609 53.2092 5.86028 52.6905 5.93842L52.1981 6.01004Z" fill="white"/>
<path d="M60.1559 8.20437L59.0265 8.3346L58.6786 7.0779L57.3063 7.24068L57.2669 8.54296L56.2426 8.66668L56.525 1.47159L58.1599 1.27625L60.1559 8.20437ZM57.3326 6.26397L58.4094 6.13375L57.4376 2.6241L57.3326 6.26397Z" fill="white"/>
<path d="M62.7756 5.09845L62.4867 5.77564L62.6903 7.95044L61.5675 8.05463L60.9109 0.970226L62.0337 0.866044L62.3226 3.95245L63.5044 0.729304L64.6272 0.625122L63.36 3.93291L65.2837 7.71603L64.1282 7.82021L62.7756 5.09845Z" fill="white"/>
<path d="M67.5555 3.43154L69.0985 3.33387L69.1641 4.34964L67.6212 4.44732L67.759 6.52445L69.7025 6.40073L69.7682 7.41651L66.7019 7.61836L66.2358 0.520945L69.302 0.319092L69.3677 1.33487L67.4242 1.45859L67.5555 3.43154Z" fill="white"/>
<path d="M73.6289 7.24063C73.6157 7.18854 73.596 7.14947 73.5829 7.1104C73.5501 7.03227 73.5238 6.92157 73.5173 6.72623C73.5041 6.63507 73.4976 6.51135 73.491 6.3681L73.445 5.24814C73.4188 4.59049 73.1955 4.34957 72.6703 4.37562L72.2829 4.38864L72.4011 7.2797L71.2717 7.32528L70.9828 0.214837L72.6834 0.149723C73.8587 0.104143 74.3774 0.625055 74.4168 1.71897L74.4365 2.27895C74.4627 3.00822 74.2395 3.49658 73.7602 3.75052C74.3445 3.95889 74.5415 4.49282 74.5678 5.23512L74.6137 6.32904C74.6269 6.68716 74.6466 6.91506 74.7713 7.18854L73.6289 7.24063ZM72.1581 1.19806L72.2435 3.37937L72.6834 3.35984C73.1036 3.34031 73.3531 3.15148 73.3268 2.57847L73.3006 1.87524C73.2809 1.35433 73.097 1.15248 72.6965 1.1655L72.1581 1.19806Z" fill="white"/>
<path d="M77.227 4.79239L75.7365 0.0586026L76.9118 0.0455798L77.8179 3.27523L78.632 0.0195342L79.7154 0L78.3563 4.77285L78.3891 7.12998L77.2598 7.143L77.227 4.79239Z" fill="white"/>
<path d="M95.0728 5.02021L95.0071 5.96436C94.9283 7.11036 94.3111 7.70941 93.2081 7.63779C92.105 7.56616 91.5732 6.88247 91.652 5.74297L91.908 2.05101C91.9868 0.905005 92.604 0.305957 93.7071 0.377582C94.8101 0.449207 95.342 1.1329 95.2632 2.2724L95.2172 2.96261L94.1536 2.89098L94.2061 2.12915C94.2389 1.61475 94.0288 1.41289 93.6743 1.39336C93.3131 1.36731 93.0768 1.53661 93.0439 2.05101L92.7813 5.88622C92.7485 6.40062 92.9586 6.58945 93.3197 6.6155C93.6808 6.64154 93.9172 6.48527 93.95 5.96436L94.0222 4.94858L95.0728 5.02021Z" fill="white"/>
<path d="M100.076 8.13924L98.9466 8.03506L98.8744 6.73278L97.4956 6.60256L97.1804 7.87228L96.1496 7.77461L97.9749 0.800903L99.6163 0.957177L100.076 8.13924ZM97.7319 5.65189L98.8153 5.75607L98.6183 2.12272L97.7319 5.65189Z" fill="white"/>
<path d="M103.09 4.50582L104.534 4.68163L104.409 5.6909L102.965 5.51509L102.61 8.43219L101.494 8.29545L102.354 1.23059L105.315 1.58872L105.191 2.59798L103.352 2.3766L103.09 4.50582Z" fill="white"/>
<path d="M107.594 4.93569L109.124 5.15708L108.973 6.15983L107.443 5.93845L107.141 8.00256L109.065 8.28255L108.914 9.2853L105.874 8.84253L106.911 1.80371L109.951 2.24649L109.8 3.24924L107.876 2.96925L107.594 4.93569Z" fill="white"/>
<path d="M86.7276 3.19057C86.7276 3.85473 86.1827 4.39518 85.513 4.39518C84.8432 4.39518 84.2983 3.85473 84.2983 3.19057C84.2983 2.52641 84.8432 1.98596 85.513 1.98596C86.1827 1.98596 86.7276 2.52641 86.7276 3.19057Z" fill="white"/>
</svg>
