<svg width="150" height="150" viewBox="0 0 150 150" fill="none" xmlns="http://www.w3.org/2000/svg">
<g style="mix-blend-mode:multiply">
<g style="mix-blend-mode:multiply">
<path d="M87.9401 63.6988L72.5854 66.9845L76.4678 85.1635L91.8304 81.8778C95.331 81.1299 103.287 78.5045 101.536 70.3339C100.303 64.5342 95.3469 62.1156 87.9401 63.6988ZM99.3009 74.0413C99.1195 74.7622 98.8037 75.4424 98.3701 76.0462C97.0574 77.884 94.5991 79.2285 91.1224 79.9445L86.9695 80.8276L85.3147 73.1105L99.1179 70.1589C99.1657 70.326 99.2054 70.501 99.2532 70.684C99.2507 70.729 99.2507 70.7742 99.2532 70.8192C99.5106 71.8734 99.5269 72.972 99.3009 74.0334V74.0413ZM94.3763 83.9781L77.0088 87.6855L81.1458 107.058L98.5133 103.342C109.421 101.011 109.158 94.0183 108.538 91.1144C107.917 88.2106 105.284 81.6311 94.3763 83.9701V83.9781ZM106.469 93.9944C106.469 94.257 106.413 94.4956 106.374 94.7502C105.785 97.7654 103.191 100.256 97.8052 101.401L91.6395 102.714L89.7381 93.7955L105.14 90.5098C105.411 90.4461 105.673 90.4064 105.936 90.3666C105.936 90.4461 105.992 90.5336 106.024 90.6212C106.055 90.7087 106.095 90.828 106.127 90.9314C106.191 91.1542 106.246 91.369 106.294 91.5997C106.342 91.8304 106.405 92.2123 106.445 92.5226C106.496 93.0089 106.504 93.4988 106.469 93.9865V93.9944ZM94.3763 83.9781L77.0088 87.6855L81.1458 107.058L98.5133 103.342C109.421 101.011 109.158 94.0183 108.538 91.1144C107.917 88.2106 105.284 81.6311 94.3763 83.9701V83.9781ZM106.469 93.9944C106.469 94.257 106.413 94.4956 106.374 94.7502C105.785 97.7654 103.191 100.256 97.8052 101.401L91.6395 102.714L89.7381 93.7955L105.14 90.5098C105.411 90.4461 105.673 90.4064 105.936 90.3666C105.936 90.4461 105.992 90.5336 106.024 90.6212C106.055 90.7087 106.095 90.828 106.127 90.9314C106.191 91.1542 106.246 91.369 106.294 91.5997C106.342 91.8304 106.405 92.2123 106.445 92.5226C106.496 93.0089 106.504 93.4988 106.469 93.9865V93.9944ZM87.9401 63.6988L72.5854 66.9845L76.4678 85.1635L91.8304 81.8778C95.331 81.1299 103.287 78.5045 101.536 70.3339C100.303 64.5342 95.3469 62.1156 87.9401 63.6988ZM99.3009 74.0413C99.1195 74.7622 98.8037 75.4424 98.3701 76.0462C97.0574 77.884 94.5991 79.2285 91.1224 79.9445L86.9695 80.8276L85.3147 73.1105L99.1179 70.1589C99.1657 70.326 99.2054 70.501 99.2532 70.684C99.2507 70.729 99.2507 70.7742 99.2532 70.8192C99.5106 71.8734 99.5269 72.972 99.3009 74.0334V74.0413ZM87.9401 63.6988L72.5854 66.9845L76.4678 85.1635L91.8304 81.8778C95.331 81.1299 103.287 78.5045 101.536 70.3339C100.303 64.5342 95.3469 62.1156 87.9401 63.6988ZM99.3009 74.0413C99.1195 74.7622 98.8037 75.4424 98.3701 76.0462C97.0574 77.884 94.5991 79.2285 91.1224 79.9445L86.9695 80.8276L85.3147 73.1105L99.1179 70.1589C99.1657 70.326 99.2054 70.501 99.2532 70.684C99.2507 70.729 99.2507 70.7742 99.2532 70.8192C99.5106 71.8734 99.5269 72.972 99.3009 74.0334V74.0413ZM94.3763 83.9781L77.0088 87.6855L81.1458 107.058L98.5133 103.342C109.421 101.011 109.158 94.0183 108.538 91.1144C107.917 88.2106 105.284 81.6311 94.3763 83.9701V83.9781ZM106.469 93.9944C106.469 94.257 106.413 94.4956 106.374 94.7502C105.785 97.7654 103.191 100.256 97.8052 101.401L91.6395 102.714L89.7381 93.7955L105.14 90.5098C105.411 90.4461 105.673 90.4064 105.936 90.3666C105.936 90.4461 105.992 90.5336 106.024 90.6212C106.055 90.7087 106.095 90.828 106.127 90.9314C106.191 91.1542 106.246 91.369 106.294 91.5997C106.342 91.8304 106.405 92.2123 106.445 92.5226C106.496 93.0089 106.504 93.4988 106.469 93.9865V93.9944ZM94.3763 83.9781L77.0088 87.6855L81.1458 107.058L98.5133 103.342C109.421 101.011 109.158 94.0183 108.538 91.1144C107.917 88.2106 105.284 81.6311 94.3763 83.9701V83.9781ZM106.469 93.9944C106.469 94.257 106.413 94.4956 106.374 94.7502C105.785 97.7654 103.191 100.256 97.8052 101.401L91.6395 102.714L89.7381 93.7955L105.14 90.5098C105.411 90.4461 105.673 90.4064 105.936 90.3666C105.936 90.4461 105.992 90.5336 106.024 90.6212C106.055 90.7087 106.095 90.828 106.127 90.9314C106.191 91.1542 106.246 91.369 106.294 91.5997C106.342 91.8304 106.405 92.2123 106.445 92.5226C106.496 93.0089 106.504 93.4988 106.469 93.9865V93.9944ZM101.536 70.3419C100.303 64.5421 95.3469 62.1236 87.9401 63.7068L72.5854 66.9925L76.4678 85.1715L91.8304 81.8857C95.331 81.1299 103.287 78.5045 101.536 70.3339V70.3419ZM86.9695 80.8196L85.3147 73.1025L99.1179 70.1509C99.1657 70.318 99.2054 70.493 99.2532 70.676C99.2507 70.7211 99.2507 70.7662 99.2532 70.8113C99.49 71.8588 99.49 72.946 99.2532 73.9936C99.0717 74.7145 98.7559 75.3946 98.3223 75.9984C97.0097 77.8362 94.5513 79.1808 91.0746 79.8968L86.9695 80.8196ZM119.922 85.8875L119.787 85.8397C119.748 85.8146 119.705 85.7958 119.66 85.784L119.532 85.7284C119.49 85.7045 119.444 85.6858 119.397 85.6727L119.27 85.617L119.135 85.5613C119.087 85.5451 119.042 85.5238 118.999 85.4976L118.872 85.4499C118.825 85.4338 118.779 85.4124 118.737 85.3863H118.61C118.568 85.3586 118.522 85.3372 118.474 85.3226L118.347 85.2749C118.304 85.2487 118.259 85.2274 118.212 85.2112L118.077 85.1555C118.036 85.1322 117.994 85.1135 117.949 85.0999C117.904 85.0881 117.861 85.0693 117.822 85.0442L117.695 84.9885L117.559 84.9328L117.432 84.8771L117.297 84.8214L117.17 84.7737L117.034 84.71L116.907 84.6623L116.78 84.6066L116.645 84.5509L116.517 84.4952L116.382 84.4395L116.255 84.3838L116.119 84.3361L115.984 84.2725L115.857 84.2247L115.722 84.169L115.594 84.1133L115.459 84.0576L115.332 84.002L115.197 83.9463L115.069 83.8906L114.934 83.8349L114.831 83.7792C119.159 80.7003 120.75 76.5076 119.604 71.1613C118.633 66.6186 116.175 63.5795 112.444 62.0838L112.317 62.036L112.181 61.9724H112.054L111.919 61.9008H111.791C111.752 61.8733 111.71 61.8519 111.664 61.8372C111.618 61.8241 111.575 61.8025 111.537 61.7735L111.402 61.7258C111.355 61.712 111.309 61.6934 111.266 61.6701L111.139 61.6144C111.092 61.6007 111.047 61.582 111.004 61.5587L110.877 61.503L110.741 61.4473L110.614 61.3916L110.479 61.3359L110.351 61.2803L110.216 61.2325L110.089 61.1689L109.954 61.1211L109.826 61.0575L109.691 61.0098L109.564 60.9541L109.437 60.8984L109.301 60.8427L109.174 60.787L109.031 60.7313L108.904 60.6836L108.768 60.6279L108.649 60.5722L108.506 60.5165L108.386 60.4608L108.251 60.4051L108.124 60.3494L107.989 60.2937C107.944 60.2774 107.901 60.2561 107.861 60.2301L107.734 60.1824L107.599 60.1187C107.555 60.1076 107.512 60.0916 107.472 60.071L107.336 60.0073L107.209 59.9675C107.166 59.9414 107.121 59.9201 107.074 59.9039C107.034 59.9039 106.986 59.9039 106.938 59.8403L106.803 59.7925C106.762 59.7706 106.72 59.752 106.676 59.7368L106.541 59.6811C106.5 59.6593 106.457 59.6406 106.413 59.6255L106.286 59.5698L106.151 59.5141L106.024 59.4663L105.888 59.4027L105.761 59.355C105.717 59.333 105.672 59.3144 105.626 59.2993L105.498 59.2436C105.451 59.2436 105.411 59.1958 105.371 59.1879L105.244 59.1322C105.196 59.1322 105.148 59.0845 105.109 59.0765L104.981 59.0208C104.934 59.0208 104.886 58.9731 104.846 58.9651L104.719 58.9174L104.584 58.8537L104.448 58.806C104.407 58.7841 104.365 58.7655 104.321 58.7503L104.186 58.6946C104.148 58.6675 104.104 58.6486 104.058 58.6389L103.923 58.5753L103.796 58.5276L103.661 58.4639L103.533 58.4162L103.398 58.3525L103.271 58.2968L103.136 58.2491L103.016 58.0661L102.881 58.0184L102.754 57.9547L102.618 57.907L102.491 57.8513L102.364 57.7956L102.229 57.7399L102.101 57.6842L101.966 57.6285L101.6 57.5013L100.908 57.2546C100.693 57.183 100.478 57.1353 100.256 57.0716C100.033 57.008 99.7623 56.9444 99.5078 56.8887L98.7997 56.7614L98.0041 56.642C97.7495 56.642 97.479 56.5943 97.2085 56.5784L96.413 56.5227C96.1266 56.5227 95.8242 56.5227 95.5299 56.5227C95.2649 56.5068 94.9993 56.5068 94.7343 56.5227C94.4081 56.5227 94.074 56.5227 93.7319 56.5863H92.9363C92.5465 56.5863 92.1407 56.6818 91.735 56.7455L91.0826 56.8728C90.4461 56.9682 82.6574 58.6151 81.9891 58.7583L81.9334 58.814L78.9103 44.6288L68.695 40.0781L58.798 42.1943L63.3647 63.5874L44.8516 67.5653L39.6405 43.1411L30.3004 38.8847L29.5924 38.5745L19.4806 40.7305L32.5678 101.99H32.6872V102.07H32.7986V102.149H32.9179V102.237H33.0213V102.308H33.1407V102.396H33.252V102.467H33.3714V102.555H33.4828V102.626H33.5941V102.722H33.7055V102.786H33.8169V102.881H33.9283V102.953H34.0397V103.04H34.151V103.112H34.2624V103.199H34.3738V103.271H34.4852V103.358H34.5886V103.43H34.7V103.517H34.8114V103.589H34.9228V103.685H35.0341V103.748H35.1455V103.836H35.2569V103.907H35.3603V103.995H35.4717V104.066H35.5831V104.154H35.6945V104.226H35.8058V104.313H35.9172V104.385H36.0286V104.472H36.14V104.544H36.2514V104.639H36.3628V104.703H36.4741V104.79H36.5935V104.878H36.7049V104.95H36.8242V105.029H36.9356V105.109H37.047V105.188H37.1583V105.268H37.2777V105.347H37.389V105.427H37.5084V105.506H37.6198V105.578H37.7391V105.666H37.8425V105.737H37.9619V105.825H38.0732V105.912H38.1846V105.976H38.296V106.071H38.4153V106.143H38.5267V106.23H38.6381V106.302H38.7495V106.39H38.8688V106.461H38.9802V106.549H39.0995V106.62H39.2109V106.708H39.3303V106.787H39.4337V106.867H39.553V106.946H39.6644V107.026H39.7837V107.113H39.8951V107.185H40.0145V107.273H40.1258V107.344H40.2372V107.432H40.3486V107.503H40.4679V107.583H40.5793V107.662H40.6907V107.742H40.8021V107.822H40.9135V107.901H41.0169V107.981H41.1283V108.068H41.2396V108.14H41.351V108.227H41.4624V108.299H41.5738V108.378H41.6852V108.458L51.3514 106.39L48.1214 82.6495L66.6345 78.6716L69.9361 94.1535L69.602 94.2649L69.9123 94.3922L74.28 114.839V114.401L74.3596 114.743H74.4709V114.831H74.5823V114.902H74.6937V114.99H74.8051V115.069H74.9244V115.149H75.0358V115.228H75.1551V115.308H75.2665V115.387H75.3858V115.475H75.4972V115.547H75.6086V115.626H75.72V115.706H75.8314V115.785H75.9507V115.865H76.0621V115.944H76.1814V116.024H76.2928V116.111H76.4121V116.183H76.5235V116.271H76.6349V116.342H76.7463V116.43H76.8656V116.509H76.977V116.589H77.0884V116.676H77.1998V116.748H77.3191V116.827H77.4384V116.907H77.5498V116.987H77.6692V117.058H77.7805V117.146H77.8999V117.233H78.0112V117.305H78.1226V117.4H78.234V117.464H78.3454V117.551H78.4568V117.623H78.5682V117.711H78.6795V117.782H78.7909V117.87H78.9023V117.941H79.0137V118.029H79.133V118.092H79.2364V118.18H79.3558V118.252H79.4672V118.339H79.5865V118.411H79.7058V118.498H79.8172V118.57H79.9365V118.657H80.0479V118.729H80.1673V118.824H80.2786V118.912H80.39V118.976H80.5014V119.063H80.6128V119.135H80.7242V119.222H80.8356V119.294H80.9469V119.381H81.0663V119.461H81.1777V119.54H81.297V119.62H81.4084V119.692H81.5198V119.779H81.6311V119.851H81.7425V119.93H81.8619V120.018H81.9732V120.089H82.0846V120.177H82.196V120.248H82.3153V120.336H82.4267V120.416H82.546V120.495H82.6574V120.575H82.7768V120.654H82.8881V120.734H83.0075V120.821H83.1189V120.893H83.2382V120.972H83.3575V121.052H83.4689V121.132H83.5883V121.211L111.052 115.34C124.576 112.444 127.409 104.48 125.921 97.5109C126.374 91.1462 123.98 87.6696 119.922 85.8875ZM113.414 100.208C111.282 103.342 107.32 105.538 101.648 106.748L76.2769 112.165L71.8376 91.4167L67.1516 69.602L35.3921 76.3564L40.0463 98.1473L34.342 99.3725L22.0742 42.1625L27.7864 40.9612L34.3499 71.7023L66.1731 64.9081L61.6462 43.6105L67.2153 42.4091L71.6228 63.0942L89.8176 59.2038C94.8695 58.1218 100.868 57.9388 104.432 61.5905C104.739 61.9177 105.026 62.263 105.292 62.6248C105.347 62.6884 105.395 62.768 105.451 62.8316C106.328 64.0206 106.96 65.3722 107.309 66.8077C107.659 68.2433 107.719 69.734 107.487 71.1931C107.188 73.4139 106.242 75.4975 104.767 77.1838L104.727 77.2395C103.412 78.8663 101.79 80.2181 99.9533 81.2174H101.051H101.95C104.551 81.4523 107.066 82.2679 109.309 83.6042L109.548 83.7315C112.218 85.4377 114.116 88.1188 114.838 91.2037C115.56 94.2887 115.049 97.5337 113.414 100.248V100.208ZM94.3763 83.9383L77.0088 87.6457L81.1458 107.018L98.5133 103.303C109.421 100.972 109.158 93.9785 108.538 91.0746C107.917 88.1708 105.284 81.6311 94.3763 83.9701V83.9383ZM106.024 90.5814C106.024 90.6848 106.095 90.7882 106.127 90.8917C106.191 91.1144 106.246 91.3292 106.294 91.5599C106.342 91.7907 106.405 92.1725 106.445 92.4828C106.489 92.9724 106.489 93.465 106.445 93.9546C106.445 94.2172 106.39 94.4558 106.35 94.7104C105.761 97.7257 103.167 100.216 97.7814 101.361L91.6156 102.674L89.7142 93.7557L105.117 90.47C105.387 90.4064 105.65 90.3666 105.912 90.3268C105.968 90.4382 105.992 90.5257 106.024 90.6132V90.5814ZM101.536 70.3021C100.303 64.5023 95.3469 62.0838 87.9401 63.667L72.5854 66.9527L76.4678 85.1317L91.8304 81.8459C95.331 81.1299 103.287 78.5045 101.536 70.3339V70.3021ZM86.9695 80.8196L85.3147 73.1025L99.1179 70.1509C99.1657 70.318 99.2054 70.493 99.2532 70.676C99.2507 70.7211 99.2507 70.7662 99.2532 70.8113C99.49 71.8588 99.49 72.946 99.2532 73.9936C99.0717 74.7145 98.7559 75.3946 98.3223 75.9984C97.0097 77.8362 94.5513 79.1808 91.0746 79.8968L86.9695 80.8196ZM87.9401 63.6988L72.5854 66.9845L76.4678 85.1635L91.8304 81.8778C95.331 81.1299 103.287 78.5045 101.536 70.3339C100.303 64.5342 95.3469 62.1156 87.9401 63.6988ZM99.3009 74.0413C99.1195 74.7622 98.8037 75.4424 98.3701 76.0462C97.0574 77.884 94.5991 79.2285 91.1224 79.9445L86.9695 80.8276L85.3147 73.1105L99.1179 70.1589C99.1657 70.326 99.2054 70.501 99.2532 70.684C99.2507 70.729 99.2507 70.7742 99.2532 70.8192C99.5106 71.8734 99.5269 72.972 99.3009 74.0334V74.0413ZM94.3763 83.9781L77.0088 87.6855L81.1458 107.058L98.5133 103.342C109.421 101.011 109.158 94.0183 108.538 91.1144C107.917 88.2106 105.284 81.6311 94.3763 83.9701V83.9781ZM106.469 93.9944C106.469 94.257 106.413 94.4956 106.374 94.7502C105.785 97.7654 103.191 100.256 97.8052 101.401L91.6395 102.714L89.7381 93.7955L105.14 90.5098C105.411 90.4461 105.673 90.4064 105.936 90.3666C105.936 90.4461 105.992 90.5336 106.024 90.6212C106.055 90.7087 106.095 90.828 106.127 90.9314C106.191 91.1542 106.246 91.369 106.294 91.5997C106.342 91.8304 106.405 92.2123 106.445 92.5226C106.496 93.0089 106.504 93.4988 106.469 93.9865V93.9944ZM94.3763 83.9781L77.0088 87.6855L81.1458 107.058L98.5133 103.342C109.421 101.011 109.158 94.0183 108.538 91.1144C107.917 88.2106 105.284 81.6311 94.3763 83.9701V83.9781ZM106.469 93.9944C106.469 94.257 106.413 94.4956 106.374 94.7502C105.785 97.7654 103.191 100.256 97.8052 101.401L91.6395 102.714L89.7381 93.7955L105.14 90.5098C105.411 90.4461 105.673 90.4064 105.936 90.3666C105.936 90.4461 105.992 90.5336 106.024 90.6212C106.055 90.7087 106.095 90.828 106.127 90.9314C106.191 91.1542 106.246 91.369 106.294 91.5997C106.342 91.8304 106.405 92.2123 106.445 92.5226C106.496 93.0089 106.504 93.4988 106.469 93.9865V93.9944ZM87.9401 63.6988L72.5854 66.9845L76.4678 85.1635L91.8304 81.8778C95.331 81.1299 103.287 78.5045 101.536 70.3339C100.303 64.5342 95.3469 62.1156 87.9401 63.6988ZM99.3009 74.0413C99.1195 74.7622 98.8037 75.4424 98.3701 76.0462C97.0574 77.884 94.5991 79.2285 91.1224 79.9445L86.9695 80.8276L85.3147 73.1105L99.1179 70.1589C99.1657 70.326 99.2054 70.501 99.2532 70.684C99.2507 70.729 99.2507 70.7742 99.2532 70.8192C99.5106 71.8734 99.5269 72.972 99.3009 74.0334V74.0413Z" fill="#24342A"/>
</g>
<g style="mix-blend-mode:multiply">
<path d="M103.947 60.787C104.254 61.1162 104.544 61.4614 104.814 61.8213C104.558 61.4504 104.268 61.1041 103.947 60.787Z" fill="#24342A"/>
</g>
<g style="mix-blend-mode:multiply">
<path d="M90.478 148.173C76.0273 151.26 60.9859 149.992 47.2557 144.531C33.5255 139.069 21.7232 129.658 13.3413 117.489C4.95935 105.32 0.37421 90.9384 0.165677 76.1632C-0.042856 61.3881 4.13459 46.8829 12.1698 34.4819C20.2049 22.0809 31.7369 12.3411 45.3075 6.49403C58.8781 0.646996 73.8777 -1.04463 88.4097 1.63306C102.942 4.31075 116.353 11.2375 126.949 21.5374C137.544 31.8373 144.847 45.0477 147.935 59.4982C152.055 78.8748 148.319 99.0946 137.547 115.72C126.775 132.345 109.847 144.017 90.478 148.173ZM60.246 6.4729C46.6705 9.37251 34.2598 16.2327 24.5832 26.1858C14.9067 36.139 8.39893 48.7381 5.88298 62.3899C3.36702 76.0416 4.95585 90.1329 10.4486 102.882C15.9413 115.63 25.0911 126.464 36.741 134.013C48.391 141.561 62.0177 145.486 75.898 145.289C89.7783 145.093 103.289 140.786 114.721 132.911C126.153 125.036 134.993 113.948 140.123 101.05C145.254 88.1507 146.444 74.0201 143.543 60.4449C139.637 42.2435 128.666 26.3364 113.041 16.2169C97.416 6.0974 78.4133 2.59287 60.2062 6.4729H60.246Z" fill="#24342A"/>
</g>
</g>
</svg>
